<?xml version="1.0" encoding="UTF-8"?>
<!DOCTYPE svg PUBLIC "-//W3C//DTD SVG 1.1//EN" "http://www.w3.org/Graphics/SVG/1.1/DTD/svg11.dtd">
<svg xmlns="http://www.w3.org/2000/svg" version="1.1" width="512px" height="512px" style="shape-rendering:geometricPrecision; text-rendering:geometricPrecision; image-rendering:optimizeQuality; fill-rule:evenodd; clip-rule:evenodd" xmlns:xlink="http://www.w3.org/1999/xlink">
<g><path style="opacity:1" fill="#6a3ea8" d="M 232.5,-0.5 C 247.833,-0.5 263.167,-0.5 278.5,-0.5C 368.144,10.3879 435.644,54.7213 481,132.5C 497.695,163.971 507.861,197.304 511.5,232.5C 511.5,247.833 511.5,263.167 511.5,278.5C 500.612,368.144 456.279,435.644 378.5,481C 347.029,497.695 313.696,507.861 278.5,511.5C 263.167,511.5 247.833,511.5 232.5,511.5C 142.856,500.612 75.3562,456.279 30,378.5C 13.3053,347.029 3.1386,313.696 -0.5,278.5C -0.5,263.167 -0.5,247.833 -0.5,232.5C 10.3875,142.857 54.7208,75.3573 132.5,30C 163.971,13.3053 197.304,3.1386 232.5,-0.5 Z"/></g>
<g><path style="opacity:1" fill="#f8f7f9" d="M 176.5,404.5 C 177.146,391.788 176.48,379.455 174.5,367.5C 130.553,350.651 106.72,318.651 103,271.5C 98.2441,236.106 100.244,201.106 109,166.5C 130.27,120.588 166.437,97.4208 217.5,97C 256.093,93.9951 294.426,95.9951 332.5,103C 359.871,112.039 381.038,128.872 396,153.5C 399.655,160.132 402.321,167.132 404,174.5C 412.862,216.884 412.528,259.217 403,301.5C 390.146,335.689 366.313,358.189 331.5,369C 298.786,375.07 265.786,377.737 232.5,377C 220.47,388.696 208.804,400.696 197.5,413C 187.23,417.857 180.23,415.024 176.5,404.5 Z"/></g>
<g><path style="opacity:1" fill="#6a3ea8" d="M 235.5,123.5 C 266.058,122.593 296.392,124.759 326.5,130C 355.297,140.465 372.797,160.632 379,190.5C 384.567,226.438 383.233,262.104 375,297.5C 362.793,324.015 342.293,339.515 313.5,344C 290.634,347.489 267.634,349.155 244.5,349C 226.57,367.097 208.57,384.93 190.5,402.5C 189.558,402.392 188.725,402.059 188,401.5C 187.667,382.167 187.333,362.833 187,343.5C 163.961,334.791 146.961,319.457 136,297.5C 126.088,256.122 126.088,214.788 136,173.5C 146.67,152.908 162.837,138.408 184.5,130C 201.544,127.033 218.544,124.866 235.5,123.5 Z"/></g>
<g><path style="opacity:1" fill="#f5f3f7" d="M 251.5,156.5 C 300.948,159.448 327.948,185.614 332.5,235C 333.91,241.248 331.577,243.914 325.5,243C 324.874,242.25 324.374,241.416 324,240.5C 322.225,193.757 298.058,168.59 251.5,165C 247.605,162.178 247.605,159.345 251.5,156.5 Z"/></g>
<g><path style="opacity:1" fill="#f8f8f9" d="M 198.5,165.5 C 203.609,164.923 207.776,166.59 211,170.5C 218.071,178.974 224.405,187.974 230,197.5C 232.411,203.033 231.578,208.033 227.5,212.5C 224.759,214.953 221.925,217.286 219,219.5C 216.93,224.624 217.264,229.624 220,234.5C 228.675,254.509 243.175,268.343 263.5,276C 266.634,276.79 269.634,276.457 272.5,275C 276.203,271.633 279.536,267.966 282.5,264C 287.657,261.832 292.657,262.165 297.5,265C 306.949,271.448 316.116,278.282 325,285.5C 326.545,287.209 327.378,289.209 327.5,291.5C 323.298,306.205 313.798,315.205 299,318.5C 244.982,301.483 206.315,267.15 183,215.5C 179.731,208.136 176.898,200.636 174.5,193C 175.317,187.546 177.483,182.712 181,178.5C 186.171,173.147 192.004,168.814 198.5,165.5 Z"/></g>
<g><path style="opacity:1" fill="#f5f4f7" d="M 257.5,176.5 C 293.332,178.828 311.498,197.828 312,233.5C 309.333,236.167 306.667,236.167 304,233.5C 302.77,203.767 287.27,187.434 257.5,184.5C 254.848,181.799 254.848,179.132 257.5,176.5 Z"/></g>
<g><path style="opacity:1" fill="#f5f3f7" d="M 263.5,197.5 C 283.512,197.676 293.012,207.676 292,227.5C 289.667,230.167 287.333,230.167 285,227.5C 284.593,214.095 277.76,206.928 264.5,206C 260.986,203.468 260.653,200.635 263.5,197.5 Z"/></g>
<g><path style="opacity:1" fill="#d2c0e0" d="M 174.5,367.5 C 176.48,379.455 177.146,391.788 176.5,404.5C 175.815,392.265 175.148,379.932 174.5,367.5 Z"/></g>
</svg>
